<svg width="25" height="24" viewBox="0 0 25 24" fill="none" xmlns="http://www.w3.org/2000/svg">
<path d="M4.50001 8C4.50001 5.172 4.50001 3.757 5.37901 2.879C6.25701 2 7.67201 2 10.5 2H14.5C17.328 2 18.743 2 19.621 2.879C20.5 3.757 20.5 5.172 20.5 8V16C20.5 18.828 20.5 20.243 19.621 21.121C18.743 22 17.328 22 14.5 22H10.5C7.67201 22 6.25701 22 5.37901 21.121C4.50001 20.243 4.50001 18.828 4.50001 16V8Z" stroke="#484C52" stroke-width="1.5"/>
<path d="M20.398 16H8.39801C7.46801 16 7.00301 16 6.62101 16.102C6.11232 16.2384 5.6485 16.5063 5.27619 16.8788C4.90387 17.2513 4.63617 17.7152 4.50001 18.224" stroke="#484C52" stroke-width="1.5"/>
<path d="M8.50001 7H16.5M8.50001 10.5H13.5" stroke="#484C52" stroke-width="1.5" stroke-linecap="round"/>
</svg>
