<svg width="40" height="40" viewBox="0 0 40 40" fill="none" xmlns="http://www.w3.org/2000/svg">
<g clip-path="url(#clip0_246_1251)">
<path d="M24.9997 12.5C25.0148 13.1658 24.8966 13.828 24.6523 14.4476C24.4079 15.0671 24.0422 15.6316 23.5767 16.1079C23.1112 16.5842 22.5552 16.9627 21.9413 17.2212C21.3275 17.4796 20.6682 17.6129 20.0022 17.613C19.3362 17.6132 18.6769 17.4803 18.0629 17.2222C17.449 16.964 16.8928 16.5858 16.427 16.1097C15.9612 15.6337 15.5953 15.0693 15.3506 14.4499C15.1059 13.8304 14.9875 13.1684 15.0022 12.5025C15.0311 11.1961 15.5703 9.95291 16.5043 9.03907C17.4383 8.12523 18.693 7.61336 19.9997 7.61304C21.3065 7.61271 22.5614 8.12395 23.4959 9.03732C24.4304 9.9507 24.9702 11.1936 24.9997 12.5Z" fill="white"/>
<path d="M31.9754 25.8L25.4754 19.225C24.9369 18.6778 24.2948 18.2435 23.5865 17.9473C22.8783 17.6511 22.1181 17.4991 21.3504 17.5H18.6729C17.0529 17.5 15.5854 18.16 14.5254 19.225L8.02538 25.8C7.78607 25.9414 7.58223 26.1357 7.42941 26.3679C7.2766 26.6001 7.17885 26.8641 7.14362 27.1399C7.10839 27.4156 7.13662 27.6958 7.22615 27.9589C7.31568 28.2221 7.46415 28.4613 7.66022 28.6584C7.85629 28.8554 8.09478 29.0051 8.3575 29.0959C8.62022 29.1868 8.90021 29.2164 9.17613 29.1826C9.45204 29.1487 9.71657 29.0523 9.94954 28.9006C10.1825 28.749 10.3778 28.5461 10.5204 28.3075L15.0004 23.825V40H18.7504V30H21.2504V40H25.0004V23.825L29.3754 28.325C29.5317 28.5301 29.7297 28.6998 29.9564 28.8228C30.183 28.9458 30.4332 29.0194 30.6903 29.0387C30.9475 29.058 31.2058 29.0226 31.4483 28.9347C31.6908 28.8469 31.9119 28.7087 32.0971 28.5293C32.2823 28.3498 32.4273 28.1331 32.5226 27.8935C32.618 27.6538 32.6614 27.3967 32.6502 27.1391C32.6389 26.8815 32.5732 26.6291 32.4573 26.3987C32.3414 26.1684 32.178 25.9651 31.9779 25.8025L31.9754 25.8Z" fill="white"/>
</g>
<defs>
<clipPath id="clip0_246_1251">
<rect width="40" height="40" fill="white"/>
</clipPath>
</defs>
</svg>
