<svg width="25" height="24" viewBox="0 0 25 24" fill="none" xmlns="http://www.w3.org/2000/svg">
<path fill-rule="evenodd" clip-rule="evenodd" d="M3.69995 6.5C3.69995 3.87479 3.72806 3 7.19995 3C10.6718 3 10.7 3.87479 10.7 6.5C10.7 9.12521 10.711 10 7.19995 10C3.68888 10 3.69995 9.12521 3.69995 6.5Z" stroke="#484C52" stroke-width="1.5" stroke-linecap="round" stroke-linejoin="round"/>
<path fill-rule="evenodd" clip-rule="evenodd" d="M14.7 6.5C14.7 3.87479 14.7281 3 18.2 3C21.6718 3 21.7 3.87479 21.7 6.5C21.7 9.12521 21.711 10 18.2 10C14.6889 10 14.7 9.12521 14.7 6.5Z" stroke="#484C52" stroke-width="1.5" stroke-linecap="round" stroke-linejoin="round"/>
<path fill-rule="evenodd" clip-rule="evenodd" d="M3.69995 17.5C3.69995 14.8748 3.72806 14 7.19995 14C10.6718 14 10.7 14.8748 10.7 17.5C10.7 20.1252 10.711 21 7.19995 21C3.68888 21 3.69995 20.1252 3.69995 17.5Z" stroke="#484C52" stroke-width="1.5" stroke-linecap="round" stroke-linejoin="round"/>
<path fill-rule="evenodd" clip-rule="evenodd" d="M14.7 17.5C14.7 14.8748 14.7281 14 18.2 14C21.6718 14 21.7 14.8748 21.7 17.5C21.7 20.1252 21.711 21 18.2 21C14.6889 21 14.7 20.1252 14.7 17.5Z" stroke="#484C52" stroke-width="1.5" stroke-linecap="round" stroke-linejoin="round"/>
</svg>
