<svg width="21" height="20" viewBox="0 0 21 20" fill="none" xmlns="http://www.w3.org/2000/svg">
<g clip-path="url(#clip0_155_2238)">
<path d="M13.2904 6.25012C13.2979 6.58304 13.2388 6.91412 13.1167 7.2239C12.9945 7.53369 12.8116 7.81594 12.5789 8.05409C12.3461 8.29224 12.0681 8.48148 11.7612 8.61071C11.4543 8.73994 11.1246 8.80656 10.7916 8.80664C10.4586 8.80672 10.129 8.74028 9.82199 8.6112C9.51501 8.48212 9.23692 8.29301 9.00403 8.05498C8.77115 7.81695 8.58817 7.53479 8.46583 7.22506C8.34349 6.91534 8.28426 6.5843 8.29163 6.25137C8.30607 5.59817 8.57566 4.97658 9.04268 4.51966C9.50969 4.06274 10.137 3.8068 10.7904 3.80664C11.4438 3.80648 12.0712 4.0621 12.5385 4.51878C13.0057 4.97547 13.2756 5.59693 13.2904 6.25012Z" fill="white"/>
<path d="M16.7777 12.9L13.5277 9.6125C13.2585 9.33892 12.9374 9.12174 12.5833 8.97365C12.2292 8.82556 11.8491 8.74953 11.4652 8.75H10.1265C9.31648 8.75 8.58273 9.08 8.05273 9.6125L4.80273 12.9C4.68307 12.9707 4.58115 13.0678 4.50475 13.1839C4.42834 13.3 4.37946 13.4321 4.36185 13.5699C4.34424 13.7078 4.35835 13.8479 4.40311 13.9795C4.44788 14.111 4.52211 14.2307 4.62015 14.3292C4.71818 14.4277 4.83743 14.5025 4.96879 14.548C5.10015 14.5934 5.24015 14.6082 5.3781 14.5913C5.51606 14.5744 5.64833 14.5261 5.76481 14.4503C5.88129 14.3745 5.97892 14.2731 6.05023 14.1538L8.29023 11.9125V20H10.1652V15H11.4152V20H13.2902V11.9125L15.4777 14.1625C15.5559 14.2651 15.6549 14.3499 15.7682 14.4114C15.8815 14.4729 16.0066 14.5097 16.1352 14.5193C16.2638 14.529 16.393 14.5113 16.5142 14.4674C16.6354 14.4235 16.746 14.3544 16.8386 14.2646C16.9312 14.1749 17.0037 14.0665 17.0514 13.9467C17.099 13.8269 17.1208 13.6984 17.1151 13.5695C17.1095 13.4407 17.0766 13.3146 17.0187 13.1994C16.9607 13.0842 16.879 12.9826 16.779 12.9013L16.7777 12.9Z" fill="white"/>
</g>
<defs>
<clipPath id="clip0_155_2238">
<rect width="20" height="20" fill="white" transform="translate(0.790039)"/>
</clipPath>
</defs>
</svg>
