<svg width="18" height="17" viewBox="0 0 18 17" fill="none" xmlns="http://www.w3.org/2000/svg">
<path d="M3.32324 2.94922C4.95605 1.31641 6.90397 0.5 9.16699 0.5C11.43 0.5 13.3636 1.31641 14.9678 2.94922C16.6006 4.55339 17.417 6.48698 17.417 8.75C17.417 11.013 16.6006 12.9609 14.9678 14.5938C13.3636 16.1979 11.43 17 9.16699 17C6.90397 17 4.95605 16.1979 3.32324 14.5938C1.71908 12.9609 0.916992 11.013 0.916992 8.75C0.916992 6.48698 1.71908 4.55339 3.32324 2.94922ZM14.0225 3.89453C12.6761 2.54818 11.0576 1.875 9.16699 1.875C7.27637 1.875 5.65788 2.54818 4.31152 3.89453C2.96517 5.24089 2.29199 6.85938 2.29199 8.75C2.29199 10.6406 2.96517 12.2591 4.31152 13.6055C5.65788 14.9518 7.27637 15.625 9.16699 15.625C11.0576 15.625 12.6761 14.9518 14.0225 13.6055C15.3688 12.2591 16.042 10.6406 16.042 8.75C16.042 6.85938 15.3688 5.24089 14.0225 3.89453ZM8.65137 2.77734C8.7946 2.63411 8.96647 2.5625 9.16699 2.5625C9.36751 2.5625 9.52507 2.63411 9.63965 2.77734C9.78288 2.89193 9.85449 3.04948 9.85449 3.25C9.85449 3.45052 9.78288 3.6224 9.63965 3.76562C9.52507 3.88021 9.36751 3.9375 9.16699 3.9375C8.96647 3.9375 8.7946 3.88021 8.65137 3.76562C8.53678 3.6224 8.47949 3.45052 8.47949 3.25C8.47949 3.04948 8.53678 2.89193 8.65137 2.77734ZM4.78418 4.41016C4.92741 4.26693 5.08496 4.19531 5.25684 4.19531C5.45736 4.19531 5.62923 4.26693 5.77246 4.41016C5.91569 4.52474 5.9873 4.68229 5.9873 4.88281C5.9873 5.05469 5.91569 5.21224 5.77246 5.35547C5.62923 5.4987 5.45736 5.57031 5.25684 5.57031C5.08496 5.57031 4.92741 5.4987 4.78418 5.35547C4.6696 5.21224 4.6123 5.05469 4.6123 4.88281C4.6123 4.68229 4.6696 4.52474 4.78418 4.41016ZM12.5615 4.36719L13.5498 5.35547L10.499 8.40625C10.5277 8.52083 10.542 8.63542 10.542 8.75C10.542 9.1224 10.3988 9.45182 10.1123 9.73828C9.85449 9.99609 9.53939 10.125 9.16699 10.125C8.7946 10.125 8.46517 9.99609 8.17871 9.73828C7.9209 9.45182 7.79199 9.1224 7.79199 8.75C7.79199 8.3776 7.9209 8.0625 8.17871 7.80469C8.46517 7.51823 8.7946 7.375 9.16699 7.375C9.28158 7.375 9.39616 7.38932 9.51074 7.41797L12.5615 4.36719ZM3.15137 8.27734C3.2946 8.13411 3.46647 8.0625 3.66699 8.0625C3.86751 8.0625 4.02507 8.13411 4.13965 8.27734C4.28288 8.39193 4.35449 8.54948 4.35449 8.75C4.35449 8.95052 4.28288 9.1224 4.13965 9.26562C4.02507 9.38021 3.86751 9.4375 3.66699 9.4375C3.46647 9.4375 3.2946 9.38021 3.15137 9.26562C3.03678 9.1224 2.97949 8.95052 2.97949 8.75C2.97949 8.54948 3.03678 8.39193 3.15137 8.27734ZM14.1514 8.27734C14.2946 8.13411 14.4665 8.0625 14.667 8.0625C14.8675 8.0625 15.0251 8.13411 15.1396 8.27734C15.2829 8.39193 15.3545 8.54948 15.3545 8.75C15.3545 8.95052 15.2829 9.1224 15.1396 9.26562C15.0251 9.38021 14.8675 9.4375 14.667 9.4375C14.4665 9.4375 14.2946 9.38021 14.1514 9.26562C14.0368 9.1224 13.9795 8.95052 13.9795 8.75C13.9795 8.54948 14.0368 8.39193 14.1514 8.27734ZM4.78418 12.1445C4.92741 12.0013 5.08496 11.9297 5.25684 11.9297C5.45736 11.9297 5.62923 12.0013 5.77246 12.1445C5.91569 12.2878 5.9873 12.4596 5.9873 12.6602C5.9873 12.832 5.91569 12.9896 5.77246 13.1328C5.62923 13.2474 5.45736 13.3047 5.25684 13.3047C5.08496 13.3047 4.92741 13.2474 4.78418 13.1328C4.6696 12.9896 4.6123 12.832 4.6123 12.6602C4.6123 12.4596 4.6696 12.2878 4.78418 12.1445ZM12.5615 12.1445C12.7048 12.0013 12.8623 11.9297 13.0342 11.9297C13.2347 11.9297 13.3923 12.0013 13.5068 12.1445C13.6501 12.2878 13.7217 12.4596 13.7217 12.6602C13.7217 12.832 13.6501 12.9896 13.5068 13.1328C13.3923 13.2474 13.2347 13.3047 13.0342 13.3047C12.8623 13.3047 12.7048 13.2474 12.5615 13.1328C12.4183 12.9896 12.3467 12.832 12.3467 12.6602C12.3467 12.4596 12.4183 12.2878 12.5615 12.1445Z" fill="#202224"/>
</svg>
