<svg width="40" height="40" viewBox="0 0 40 40" fill="none" xmlns="http://www.w3.org/2000/svg">
<g clip-path="url(#clip0_334_458)">
<path fill-rule="evenodd" clip-rule="evenodd" d="M0.714287 3.57138C0.714287 2.81361 1.01531 2.08689 1.55112 1.55107C2.08694 1.01525 2.81367 0.714233 3.57143 0.714233H21.9629C22.3381 0.714233 22.7096 0.788136 23.0562 0.93172C23.4029 1.07531 23.7179 1.28576 23.9832 1.55107C24.2485 1.81638 24.4589 2.13135 24.6025 2.478C24.7461 2.82464 24.82 3.19617 24.82 3.57138V11.6085H18.0371C16.3322 11.6085 14.697 12.2858 13.4915 13.4914C12.2859 14.697 11.6086 16.3321 11.6086 18.0371V24.8199H3.57143C2.81367 24.8199 2.08694 24.5189 1.55112 23.9831C1.01531 23.4473 0.714287 22.7206 0.714287 21.9628V3.57138ZM8.00286 10.7114H7.9C6.3 10.7114 5.00572 9.41709 5.00572 7.81709V7.77995C5.00572 7.02219 5.30674 6.29546 5.84255 5.75964C6.37837 5.22382 7.1051 4.9228 7.86286 4.9228H7.90286C8.28313 4.91643 8.66093 4.98501 9.0147 5.12464C9.36846 5.26427 9.69126 5.47221 9.96466 5.7366C10.2381 6.00098 10.4567 6.31662 10.6081 6.6655C10.7596 7.01439 10.8408 7.38968 10.8471 7.76995C10.8535 8.15022 10.7849 8.52802 10.6453 8.88179C10.5057 9.23555 10.2977 9.55835 10.0334 9.83175C9.76897 10.1052 9.45333 10.3238 9.10445 10.4752C8.75556 10.6266 8.38027 10.7079 8 10.7142L8.00286 10.7114ZM18.0371 15.1799C17.2794 15.1799 16.5527 15.481 16.0168 16.0168C15.481 16.5526 15.18 17.2793 15.18 18.0371V36.4285C15.18 37.1863 15.481 37.913 16.0168 38.4488C16.5527 38.9846 17.2794 39.2857 18.0371 39.2857H36.4286C37.1863 39.2857 37.9131 38.9846 38.4489 38.4488C38.9847 37.913 39.2857 37.1863 39.2857 36.4285V18.0371C39.2857 17.2793 38.9847 16.5526 38.4489 16.0168C37.9131 15.481 37.1863 15.1799 36.4286 15.1799H18.0371ZM31.0914 25.6342C31.8492 25.6342 32.5759 25.3332 33.1117 24.7974C33.6476 24.2616 33.9486 23.5349 33.9486 22.7771C33.9486 22.0193 33.6476 21.2926 33.1117 20.7568C32.5759 20.221 31.8492 19.9199 31.0914 19.9199C30.3337 19.9199 29.6069 20.221 29.0711 20.7568C28.5353 21.2926 28.2343 22.0193 28.2343 22.7771C28.2343 23.5349 28.5353 24.2616 29.0711 24.7974C29.6069 25.3332 30.3337 25.6342 31.0914 25.6342ZM26.2343 31.6914C26.2343 32.4491 25.9333 33.1759 25.3974 33.7117C24.8616 34.2475 24.1349 34.5485 23.3771 34.5485C22.6194 34.5485 21.8927 34.2475 21.3568 33.7117C20.821 33.1759 20.52 32.4491 20.52 31.6914C20.52 30.9336 20.821 30.2069 21.3568 29.6711C21.8927 29.1353 22.6194 28.8342 23.3771 28.8342C24.1349 28.8342 24.8616 29.1353 25.3974 29.6711C25.9333 30.2069 26.2343 30.9336 26.2343 31.6914Z" fill="white"/>
</g>
<defs>
<clipPath id="clip0_334_458">
<rect width="40" height="40" fill="white"/>
</clipPath>
</defs>
</svg>
