<svg width="40" height="40" viewBox="0 0 40 40" fill="none" xmlns="http://www.w3.org/2000/svg">
<path d="M28.6798 7.95497C28.1228 8.53433 27.8191 9.3109 27.8355 10.1138C27.8697 11.7859 29.2549 13.1137 30.9294 13.0795C31.7335 13.0631 32.4981 12.7284 33.0551 12.1491L37.0855 7.95681C37.8824 9.53914 38.1685 11.3293 37.9043 13.0807C37.6401 14.8321 36.8387 16.4586 35.6103 17.7363C34.3819 19.014 32.7871 19.88 31.0454 20.2151C29.3036 20.5502 27.5007 20.3379 25.8849 19.6073C23.7516 18.0194 22.8051 17.0995 21.5095 15.4132C20.7126 13.8309 20.4265 12.0408 20.6907 10.2894C20.9549 8.53798 21.7564 6.91143 22.9847 5.63373C24.2131 4.35602 25.808 3.49 27.5497 3.15492C29.2914 2.81984 31.0943 3.03218 32.7102 3.7627L28.6798 7.95497Z" fill="white"/>
<path d="M13.6158 23.7867L18.0138 27.9568L11.4846 34.8829C10.9276 35.4623 10.1629 35.797 9.35881 35.8134C8.5547 35.8298 7.77699 35.5265 7.19678 34.9703C6.61658 34.4142 6.2814 33.6506 6.26498 32.8477C6.24856 32.0447 6.55225 31.2682 7.10923 30.6888L13.6158 23.7867Z" fill="white"/>
<path d="M19.1656 16.3033L33.4581 29.8551C34.8708 31.1947 34.946 33.4183 33.6269 34.8499C32.2781 36.3138 29.99 36.391 28.5454 35.0212L14.2529 21.4695C13.0889 20.3658 12.8329 18.662 13.5166 17.2955L6.88164 10.8994L5.65128 12.1291L2 7.21061L4.25829 4.71645L9.53806 8.2442L8.31768 9.46401L14.9038 15.8131C16.2384 15.0306 17.9841 15.1831 19.1656 16.3033Z" fill="white"/>
</svg>
