<svg width="40" height="40" viewBox="0 0 40 40" fill="none" xmlns="http://www.w3.org/2000/svg">
<path fill-rule="evenodd" clip-rule="evenodd" d="M14.9367 30.7817C10.0317 27.0234 3.33333 20.815 3.33333 14.945C3.33333 5.13837 12.5 1.47671 20 9.05004C27.5 1.47671 36.6667 5.13837 36.6667 14.945C36.6667 20.815 29.9667 27.0234 25.0633 30.7817C22.8433 32.4817 21.7333 33.3334 20 33.3334C18.2667 33.3334 17.1567 32.4834 14.9367 30.7817ZM27.5 10.4167C27.8315 10.4167 28.1495 10.5484 28.3839 10.7828C28.6183 11.0172 28.75 11.3352 28.75 11.6667V13.75H30.8333C31.1649 13.75 31.4828 13.8817 31.7172 14.1162C31.9516 14.3506 32.0833 14.6685 32.0833 15C32.0833 15.3316 31.9516 15.6495 31.7172 15.8839C31.4828 16.1183 31.1649 16.25 30.8333 16.25H28.75V18.3334C28.75 18.6649 28.6183 18.9828 28.3839 19.2173C28.1495 19.4517 27.8315 19.5834 27.5 19.5834C27.1685 19.5834 26.8505 19.4517 26.6161 19.2173C26.3817 18.9828 26.25 18.6649 26.25 18.3334V16.25H24.1667C23.8351 16.25 23.5172 16.1183 23.2828 15.8839C23.0484 15.6495 22.9167 15.3316 22.9167 15C22.9167 14.6685 23.0484 14.3506 23.2828 14.1162C23.5172 13.8817 23.8351 13.75 24.1667 13.75H26.25V11.6667C26.25 11.3352 26.3817 11.0172 26.6161 10.7828C26.8505 10.5484 27.1685 10.4167 27.5 10.4167Z" fill="white"/>
</svg>
