<svg width="18" height="17" viewBox="0 0 18 17" fill="none" xmlns="http://www.w3.org/2000/svg">
<path d="M8.47949 0.5H9.85449V8.75H8.47949V0.5ZM6.41699 0.972656V2.47656C5.18522 2.99219 4.18262 3.82292 3.40918 4.96875C2.66439 6.11458 2.29199 7.375 2.29199 8.75C2.29199 10.6406 2.96517 12.2591 4.31152 13.6055C5.65788 14.9518 7.27637 15.625 9.16699 15.625C11.0576 15.625 12.6761 14.9518 14.0225 13.6055C15.3688 12.2591 16.042 10.6406 16.042 8.75C16.042 7.375 15.6553 6.11458 14.8818 4.96875C14.137 3.82292 13.1488 2.99219 11.917 2.47656V0.972656C13.5498 1.54557 14.8675 2.54818 15.8701 3.98047C16.9014 5.38411 17.417 6.97396 17.417 8.75C17.417 11.013 16.6006 12.9609 14.9678 14.5938C13.3636 16.1979 11.43 17 9.16699 17C6.90397 17 4.95605 16.1979 3.32324 14.5938C1.71908 12.9609 0.916992 11.013 0.916992 8.75C0.916992 6.97396 1.41829 5.38411 2.4209 3.98047C3.45215 2.54818 4.78418 1.54557 6.41699 0.972656Z" fill="#202224"/>
</svg>
