<svg width="25" height="24" viewBox="0 0 25 24" fill="none" xmlns="http://www.w3.org/2000/svg">
<path d="M8.30001 9H16.3M8.30001 13H14.3M18.3 4C19.0957 4 19.8587 4.31607 20.4213 4.87868C20.9839 5.44129 21.3 6.20435 21.3 7V15C21.3 15.7956 20.9839 16.5587 20.4213 17.1213C19.8587 17.6839 19.0957 18 18.3 18H13.3L8.30001 21V18H6.30001C5.50436 18 4.7413 17.6839 4.17869 17.1213C3.61608 16.5587 3.30001 15.7956 3.30001 15V7C3.30001 6.20435 3.61608 5.44129 4.17869 4.87868C4.7413 4.31607 5.50436 4 6.30001 4H18.3Z" stroke="#484C52" stroke-width="2" stroke-linecap="round" stroke-linejoin="round"/>
</svg>
