<svg width="40" height="40" viewBox="0 0 40 40" fill="none" xmlns="http://www.w3.org/2000/svg">
<path fill-rule="evenodd" clip-rule="evenodd" d="M12.8571 4.28577C11.4429 4.28577 10.3343 5.14577 9.64857 6.1772C8.95429 7.2172 8.57143 8.57434 8.57143 10.0001C8.57143 11.4286 8.95429 12.7829 9.64857 13.8229C10.3343 14.8515 11.4429 15.7143 12.8571 15.7143C14.2714 15.7143 15.38 14.8543 16.0657 13.8229C16.76 12.7829 17.1429 11.4258 17.1429 10.0001C17.1429 8.57148 16.76 7.2172 16.0657 6.1772C15.38 5.14862 14.2714 4.28577 12.8571 4.28577ZM27.1429 4.28577C25.7286 4.28577 24.62 5.14577 23.9343 6.1772C23.24 7.2172 22.8571 8.57434 22.8571 10.0001C22.8571 11.4286 23.24 12.7829 23.9343 13.8229C24.62 14.8515 25.7286 15.7143 27.1429 15.7143C28.5571 15.7143 29.6657 14.8543 30.3514 13.8229C31.0457 12.7829 31.4286 11.4258 31.4286 10.0001C31.4286 8.57148 31.0457 7.2172 30.3514 6.1772C29.6657 5.14862 28.5571 4.28577 27.1429 4.28577ZM4.28571 17.1429C2.87143 17.1429 1.76286 18.0029 1.07714 19.0343C0.382857 20.0743 0 21.4315 0 22.8572C0 24.2858 0.382857 25.6401 1.07714 26.6801C1.76286 27.7086 2.87143 28.5715 4.28571 28.5715C5.7 28.5715 6.80857 27.7115 7.49429 26.6801C8.18857 25.6401 8.57143 24.2829 8.57143 22.8572C8.57143 21.4286 8.18857 20.0743 7.49429 19.0343C6.80857 18.0058 5.7 17.1429 4.28571 17.1429ZM20 17.1429C16.5714 17.1429 14.0314 18.9829 12.4086 21.2658C10.8057 23.5143 10 26.3058 10 28.5715C10 31.2115 11.5857 33.0458 13.5314 34.1486C15.4457 35.2343 17.8457 35.7143 20 35.7143C22.1514 35.7143 24.5543 35.2372 26.4686 34.1486C28.4114 33.0458 30 31.2115 30 28.5715C30 26.3058 29.1943 23.5143 27.5914 21.2658C25.9714 18.9801 23.4314 17.1429 20 17.1429ZM35.7143 17.1429C34.3 17.1429 33.1914 18.0029 32.5057 19.0343C31.8114 20.0743 31.4286 21.4315 31.4286 22.8572C31.4286 24.2858 31.8114 25.6401 32.5057 26.6801C33.1914 27.7086 34.3 28.5715 35.7143 28.5715C37.1286 28.5715 38.2371 27.7115 38.9229 26.6801C39.6171 25.6401 40 24.2829 40 22.8572C40 21.4286 39.6171 20.0743 38.9229 19.0343C38.2371 18.0058 37.1286 17.1429 35.7143 17.1429Z" fill="white"/>
</svg>
