<svg width="25" height="24" viewBox="0 0 25 24" fill="none" xmlns="http://www.w3.org/2000/svg">
<path fill-rule="evenodd" clip-rule="evenodd" d="M4.56447 15.4645C5.50215 14.5268 6.77392 14 8.10001 14H16.1C17.4261 14 18.6979 14.5268 19.6355 15.4645C20.5732 16.4021 21.1 17.6739 21.1 19V21C21.1 21.5523 20.6523 22 20.1 22C19.5477 22 19.1 21.5523 19.1 21V19C19.1 18.2044 18.7839 17.4413 18.2213 16.8787C17.6587 16.3161 16.8957 16 16.1 16H8.10001C7.30436 16 6.5413 16.3161 5.97869 16.8787C5.41608 17.4413 5.10001 18.2044 5.10001 19V21C5.10001 21.5523 4.65229 22 4.10001 22C3.54772 22 3.10001 21.5523 3.10001 21V19C3.10001 17.6739 3.62679 16.4021 4.56447 15.4645Z" fill="#484C52"/>
<path fill-rule="evenodd" clip-rule="evenodd" d="M12.1 4C10.4432 4 9.10001 5.34315 9.10001 7C9.10001 8.65685 10.4432 10 12.1 10C13.7569 10 15.1 8.65685 15.1 7C15.1 5.34315 13.7569 4 12.1 4ZM7.10001 7C7.10001 4.23858 9.33858 2 12.1 2C14.8614 2 17.1 4.23858 17.1 7C17.1 9.76142 14.8614 12 12.1 12C9.33858 12 7.10001 9.76142 7.10001 7Z" fill="#484C52"/>
</svg>
