<svg width="22" height="22" viewBox="0 0 22 22" fill="none" xmlns="http://www.w3.org/2000/svg">
<path d="M6.0502 8.75481C6.86607 8.61691 7.60036 8.17753 8.10756 7.52377C8.61475 6.87 8.85784 6.04955 8.78864 5.225C8.71945 4.40046 8.34302 3.632 7.73396 3.07191C7.12489 2.51182 6.32764 2.20097 5.5002 2.20097C4.67276 2.20097 3.87551 2.51182 3.26645 3.07191C2.65739 3.632 2.28096 4.40046 2.21176 5.225C2.14257 6.04955 2.38565 6.87 2.89285 7.52377C3.40004 8.17753 4.13433 8.61691 4.9502 8.75481V13.245C4.13433 13.3829 3.40004 13.8223 2.89285 14.4761C2.38565 15.1298 2.14257 15.9503 2.21176 16.7748C2.28096 17.5994 2.65739 18.3678 3.26645 18.9279C3.87551 19.488 4.67276 19.7989 5.5002 19.7989C6.32764 19.7989 7.12489 19.488 7.73396 18.9279C8.34302 18.3678 8.71945 17.5994 8.78864 16.7748C8.85784 15.9503 8.61475 15.1298 8.10756 14.4761C7.60036 13.8223 6.86607 13.3829 6.0502 13.245V8.75481ZM5.5002 7.69991C4.91673 7.69991 4.35715 7.46813 3.94457 7.05555C3.53199 6.64297 3.3002 6.08339 3.3002 5.49991C3.3002 4.91644 3.53199 4.35686 3.94457 3.94428C4.35715 3.5317 4.91673 3.29991 5.5002 3.29991C6.08368 3.29991 6.64326 3.5317 7.05584 3.94428C7.46842 4.35686 7.7002 4.91644 7.7002 5.49991C7.7002 6.08339 7.46842 6.64297 7.05584 7.05555C6.64326 7.46813 6.08368 7.69991 5.5002 7.69991ZM7.7002 16.4999C7.7002 17.0834 7.46842 17.643 7.05584 18.0555C6.64326 18.4681 6.08368 18.6999 5.5002 18.6999C4.91673 18.6999 4.35715 18.4681 3.94457 18.0555C3.53199 17.643 3.3002 17.0834 3.3002 16.4999C3.3002 15.9164 3.53199 15.3569 3.94457 14.9443C4.35715 14.5317 4.91673 14.2999 5.5002 14.2999C6.08368 14.2999 6.64326 14.5317 7.05584 14.9443C7.46842 15.3569 7.7002 15.9164 7.7002 16.4999ZM12.2608 7.53931C12.3641 7.64259 12.5041 7.70061 12.6502 7.70061C12.7963 7.70061 12.9363 7.64259 13.0396 7.53931C13.1429 7.43604 13.2009 7.29597 13.2009 7.14991C13.2009 7.00386 13.1429 6.86379 13.0396 6.76051L11.7779 5.49991H13.7502C14.4795 5.49991 15.179 5.78964 15.6947 6.30537C16.2105 6.82109 16.5002 7.52057 16.5002 8.24991V13.1999C15.6735 13.2011 14.8773 13.5127 14.2692 14.0728C13.6612 14.633 13.2855 15.401 13.2166 16.2248C13.1477 17.0487 13.3905 17.8684 13.8971 18.5218C14.4036 19.1752 15.137 19.6147 15.952 19.7532C16.7671 19.8918 17.6045 19.7194 18.2985 19.2701C18.9925 18.8208 19.4926 18.1273 19.6998 17.327C19.907 16.5266 19.8062 15.6776 19.4174 14.948C19.0286 14.2184 18.3801 13.6613 17.6002 13.3869V8.24991C17.6002 7.22883 17.1946 6.24957 16.4726 5.52755C15.7505 4.80554 14.7713 4.39991 13.7502 4.39991H11.7779L13.0396 3.13931C13.0907 3.08818 13.1313 3.02747 13.159 2.96066C13.1867 2.89384 13.2009 2.82223 13.2009 2.74991C13.2009 2.6776 13.1867 2.60599 13.159 2.53917C13.1313 2.47236 13.0907 2.41165 13.0396 2.36051C12.9885 2.30938 12.9278 2.26881 12.8609 2.24114C12.7941 2.21346 12.7225 2.19922 12.6502 2.19922C12.5779 2.19922 12.5063 2.21346 12.4395 2.24114C12.3726 2.26881 12.3119 2.30938 12.2608 2.36051L10.0608 4.56051C10.0096 4.6116 9.96895 4.6723 9.94122 4.73912C9.91349 4.80594 9.89922 4.87757 9.89922 4.94991C9.89922 5.02226 9.91349 5.09389 9.94122 5.16071C9.96895 5.22753 10.0096 5.28822 10.0608 5.33931L12.2608 7.53931ZM18.7002 16.4999C18.7002 17.0834 18.4684 17.643 18.0558 18.0555C17.6433 18.4681 17.0837 18.6999 16.5002 18.6999C15.9167 18.6999 15.3571 18.4681 14.9446 18.0555C14.532 17.643 14.3002 17.0834 14.3002 16.4999C14.3002 15.9164 14.532 15.3569 14.9446 14.9443C15.3571 14.5317 15.9167 14.2999 16.5002 14.2999C17.0837 14.2999 17.6433 14.5317 18.0558 14.9443C18.4684 15.3569 18.7002 15.9164 18.7002 16.4999Z" fill="#202224"/>
</svg>
