<svg width="30" height="34" viewBox="0 0 30 34" fill="none" xmlns="http://www.w3.org/2000/svg">
<path fill-rule="evenodd" clip-rule="evenodd" d="M0 11.3164L12.9005 18.7645C13.0394 18.8447 13.1851 18.9026 13.3333 18.9394V33.3846L0.920065 26.0384C0.349784 25.701 0 25.0875 0 24.4248V11.3164ZM30.0003 11.1191V24.4256C30.0003 25.0882 29.6505 25.7017 29.0803 26.0392L16.667 33.3854V18.8136C16.6972 18.7985 16.7272 18.7824 16.7569 18.7652L30.0003 11.1191Z" fill="#FEC53D"/>
<path opacity="0.499209" fill-rule="evenodd" clip-rule="evenodd" d="M0.405273 7.70142C0.562849 7.50244 0.761736 7.33426 0.993616 7.21076L14.1186 0.2201C14.6696 -0.0733665 15.3305 -0.0733665 15.8815 0.2201L29.0065 7.21076C29.1852 7.30596 29.3444 7.42771 29.4801 7.56966L15.0899 15.8778C14.9953 15.9325 14.9081 15.995 14.8286 16.064C14.7491 15.995 14.6618 15.9325 14.5672 15.8778L0.405273 7.70142Z" fill="#FEC53D"/>
</svg>
