<svg width="28" height="31" viewBox="0 0 28 31" fill="none" xmlns="http://www.w3.org/2000/svg">
<path opacity="0.78" fill-rule="evenodd" clip-rule="evenodd" d="M12.6309 9.80736C12.651 9.54686 12.8682 9.3457 13.1294 9.3457H13.5473C13.8041 9.3457 14.0192 9.54035 14.0448 9.79595L14.6664 16.0124L19.0812 18.5351C19.237 18.6241 19.3331 18.7898 19.3331 18.9692V19.3577C19.3331 19.6874 19.0196 19.9269 18.7015 19.8401L12.3984 18.1211C12.167 18.058 12.0131 17.8395 12.0315 17.6004L12.6309 9.80736Z" fill="#FF9066"/>
<path opacity="0.901274" fill-rule="evenodd" clip-rule="evenodd" d="M6.7214 0.984587C6.45729 0.669838 5.94735 0.790308 5.85202 1.18997L4.21855 8.03811C4.14088 8.36376 4.39895 8.67226 4.7332 8.65332L11.778 8.2541C12.1889 8.23082 12.3972 7.74879 12.1327 7.43351L10.3312 5.28658C11.4962 4.88844 12.7315 4.68049 14 4.68049C20.2592 4.68049 25.3333 9.75459 25.3333 16.0138C25.3333 22.273 20.2592 27.3472 14 27.3472C7.74077 27.3472 2.66667 22.273 2.66667 16.0138C2.66667 14.9631 2.80896 13.9339 3.08641 12.9448L0.518845 12.2246C0.180793 13.4297 0 14.7007 0 16.0138C0 23.7458 6.26801 30.0138 14 30.0138C21.732 30.0138 28 23.7458 28 16.0138C28 8.28183 21.732 2.01382 14 2.01382C12.055 2.01382 10.2026 2.41046 8.51932 3.12727L6.7214 0.984587Z" fill="#FF9066"/>
</svg>
