<svg width="15" height="16" viewBox="0 0 15 16" fill="none" xmlns="http://www.w3.org/2000/svg">
<path d="M4.08398 1.60547C5.0293 0.660156 6.16081 0.1875 7.47852 0.1875C8.79622 0.1875 9.92773 0.660156 10.873 1.60547C11.8184 2.55078 12.291 3.68229 12.291 5C12.291 5.80208 12.0905 6.5612 11.6895 7.27734C11.3171 7.99349 10.8014 8.56641 10.1426 8.99609C11.403 9.54036 12.4199 10.3854 13.1934 11.5312C13.9668 12.6484 14.3535 13.9089 14.3535 15.3125H12.9785C12.9785 13.7943 12.4342 12.5052 11.3457 11.4453C10.2858 10.3568 8.99674 9.8125 7.47852 9.8125C5.96029 9.8125 4.6569 10.3568 3.56836 11.4453C2.50846 12.5052 1.97852 13.7943 1.97852 15.3125H0.603516C0.603516 13.9089 0.990234 12.6484 1.76367 11.5312C2.53711 10.3854 3.55404 9.54036 4.81445 8.99609C4.1556 8.56641 3.62565 7.99349 3.22461 7.27734C2.85221 6.5612 2.66602 5.80208 2.66602 5C2.66602 3.68229 3.13867 2.55078 4.08398 1.60547ZM9.88477 2.59375C9.22591 1.90625 8.42383 1.5625 7.47852 1.5625C6.5332 1.5625 5.7168 1.90625 5.0293 2.59375C4.37044 3.2526 4.04102 4.05469 4.04102 5C4.04102 5.94531 4.37044 6.76172 5.0293 7.44922C5.7168 8.10807 6.5332 8.4375 7.47852 8.4375C8.42383 8.4375 9.22591 8.10807 9.88477 7.44922C10.5723 6.76172 10.916 5.94531 10.916 5C10.916 4.05469 10.5723 3.2526 9.88477 2.59375Z" fill="#202224"/>
</svg>
